<svg width="125" height="24" viewBox="0 0 125 24" fill="none" xmlns="http://www.w3.org/2000/svg">
<path fill-rule="evenodd" clip-rule="evenodd" d="M35 0V24H0V0H35ZM19 6H10V9H16V18H19V6ZM13 12H10V18H13V12ZM25 6H22V18H25V6Z" fill="#0E6CDD" fill-opacity="0.2"/>
<path d="M125 0H39V24H125V0Z" fill="#0E6CDD" fill-opacity="0.2"/>
<path d="M50.5762 7.02401L47.6402 11H46.7762V5.40001H47.7602V9.38401L50.6962 5.40001H51.5602V11H50.5762V7.02401Z" fill="white"/>
<path d="M57.6321 11H56.6561V8.60801H54.0961V11H53.1121V5.40001H54.0961V7.68801H56.6561V5.40001H57.6321V11Z" fill="white"/>
<path d="M60.3024 6.32001H58.4864V5.40001H63.1024V6.32001H61.2864V11H60.3024V6.32001Z" fill="white"/>
<path d="M67.2758 11H63.9558V5.40001H67.1958V6.32001H64.9398V7.71201H66.9558V8.63201H64.9398V10.08H67.2758V11Z" fill="white"/>
<path d="M69.5414 8.97601V11H68.5574V5.40001C68.7921 5.40001 69.0454 5.39734 69.3174 5.39201C69.5947 5.38668 69.8721 5.38401 70.1494 5.38401C70.5441 5.38401 70.8854 5.43468 71.1734 5.53601C71.4667 5.63201 71.6934 5.76801 71.8534 5.94401C72.0134 6.11468 72.1307 6.30401 72.2054 6.51201C72.2801 6.71468 72.3174 6.93868 72.3174 7.18401C72.3174 7.69068 72.1361 8.12001 71.7734 8.47201C71.4161 8.82401 70.9147 9.00001 70.2694 9.00001C69.9441 9.00001 69.7014 8.99201 69.5414 8.97601ZM70.2454 6.30401L69.5414 6.32001V8.04001C69.8241 8.06668 70.0561 8.08001 70.2374 8.08001C70.5521 8.08001 70.8027 8.00268 70.9894 7.84801C71.1814 7.69335 71.2774 7.46935 71.2774 7.17601C71.2774 6.59468 70.9334 6.30401 70.2454 6.30401Z" fill="white"/>
<path d="M73.2122 11H72.2202L74.5882 5.38401H75.4522L77.8202 11H76.7722L76.1882 9.56801H73.7962L73.2122 11ZM75.8122 8.64801L74.9962 6.65601L74.1722 8.64801H75.8122Z" fill="white"/>
<path d="M79.643 11H78.659V5.40001H79.643V8.05601L81.851 5.40001H83.035L80.731 8.00801L83.179 11H81.931L79.643 8.11201V11Z" fill="white"/>
<path d="M85.1071 6.32001H83.2911V5.40001H87.9071V6.32001H86.0911V11H85.1071V6.32001Z" fill="white"/>
<path d="M92.5605 7.02401L89.6245 11H88.7605V5.40001H89.7445V9.38401L92.6805 5.40001H93.5445V11H92.5605V7.02401Z" fill="white"/>
<path d="M95.0965 10.992V5.41601C95.6725 5.38935 96.2111 5.37601 96.7125 5.37601C97.3311 5.37601 97.7925 5.49868 98.0965 5.74401C98.4005 5.98935 98.5525 6.32801 98.5525 6.76001C98.5525 7.36268 98.2858 7.78668 97.7525 8.03201V8.04801C98.0565 8.12801 98.2965 8.28001 98.4725 8.50401C98.6485 8.72268 98.7365 9.00534 98.7365 9.35201C98.7365 9.89601 98.5498 10.312 98.1765 10.6C97.8031 10.888 97.2965 11.032 96.6565 11.032C96.0165 11.032 95.4965 11.0187 95.0965 10.992ZM96.7765 8.59201H96.0805V10.072C96.3311 10.0987 96.5471 10.112 96.7285 10.112C97.4111 10.112 97.7525 9.84268 97.7525 9.30401C97.7525 9.06935 97.6671 8.89335 97.4965 8.77601C97.3258 8.65335 97.0858 8.59201 96.7765 8.59201ZM96.6965 6.29601C96.4618 6.29601 96.2565 6.30401 96.0805 6.32001V7.73601H96.7445C96.9951 7.73601 97.1951 7.67201 97.3445 7.54401C97.4991 7.41601 97.5765 7.23201 97.5765 6.99201C97.5765 6.76801 97.4991 6.59734 97.3445 6.48001C97.1898 6.35735 96.9738 6.29601 96.6965 6.29601Z" fill="white"/>
<path d="M104.554 11H103.578V8.60801H101.018V11H100.034V5.40001H101.018V7.68801H103.578V5.40001H104.554V11Z" fill="white"/>
<path d="M105.688 8.20001C105.688 7.38401 105.96 6.69868 106.504 6.14401C107.059 5.58934 107.758 5.31201 108.6 5.31201C109.443 5.31201 110.139 5.57868 110.688 6.11201C111.243 6.65068 111.52 7.34668 111.52 8.20001C111.52 9.03735 111.243 9.72801 110.688 10.272C110.134 10.816 109.438 11.088 108.6 11.088C107.758 11.088 107.062 10.8213 106.512 10.288C105.963 9.75468 105.688 9.05868 105.688 8.20001ZM106.728 8.20001C106.728 8.76535 106.907 9.23468 107.264 9.60801C107.622 9.98135 108.067 10.168 108.6 10.168C109.176 10.168 109.632 9.98135 109.968 9.60801C110.31 9.23468 110.48 8.76535 110.48 8.20001C110.48 7.62935 110.299 7.15735 109.936 6.78401C109.574 6.41601 109.128 6.23201 108.6 6.23201C108.062 6.23201 107.614 6.41601 107.256 6.78401C106.904 7.15201 106.728 7.62401 106.728 8.20001Z" fill="white"/>
<path d="M115.979 11H112.659V5.40001H115.899V6.32001H113.643V7.71201H115.659V8.63201H113.643V10.08H115.979V11Z" fill="white"/>
<path d="M47.0482 19H46.0562L48.4242 13.384H49.2882L51.6562 19H50.6082L50.0242 17.568H47.6322L47.0482 19ZM49.6482 16.648L48.8322 14.656L48.0082 16.648H49.6482Z" fill="white"/>
<path d="M53.4789 19H52.4949V13.4H55.6549V14.32H53.4789V19Z" fill="white"/>
<path d="M59.8696 19H56.5496V13.4H59.7896V14.32H57.5336V15.712H59.5496V16.632H57.5336V18.08H59.8696V19Z" fill="white"/>
<path d="M65.6712 19H64.6952V16.608H62.1352V19H61.1512V13.4H62.1352V15.688H64.6952V13.4H65.6712V19Z" fill="white"/>
<path d="M68.3415 14.32H66.5255V13.4H71.1415V14.32H69.3255V19H68.3415V14.32Z" fill="white"/>
<path d="M75.6251 17.72L76.0011 18.456C75.8251 18.6427 75.5718 18.7947 75.2411 18.912C74.9158 19.0293 74.5718 19.088 74.2091 19.088C73.3558 19.088 72.6598 18.824 72.1211 18.296C71.5878 17.768 71.3211 17.0693 71.3211 16.2C71.3211 15.368 71.5744 14.6773 72.0811 14.128C72.5824 13.584 73.2838 13.312 74.1851 13.312C74.8998 13.312 75.4678 13.5013 75.8891 13.88L75.4491 14.608C75.0704 14.3573 74.6491 14.232 74.1851 14.232C73.6518 14.232 73.2144 14.4107 72.8731 14.768C72.5318 15.1253 72.3611 15.6027 72.3611 16.2C72.3611 16.7867 72.5398 17.2613 72.8971 17.624C73.2598 17.9867 73.7264 18.168 74.2971 18.168C74.7878 18.168 75.2304 18.0187 75.6251 17.72Z" fill="white"/>
<path d="M78.0993 14.32H76.2833V13.4H80.8993V14.32H79.0833V19H78.0993V14.32Z" fill="white"/>
<path d="M81.7527 18.992V13.416C82.3287 13.3893 82.8674 13.376 83.3687 13.376C83.9874 13.376 84.4487 13.4987 84.7527 13.744C85.0567 13.9893 85.2087 14.328 85.2087 14.76C85.2087 15.3627 84.942 15.7867 84.4087 16.032V16.048C84.7127 16.128 84.9527 16.28 85.1287 16.504C85.3047 16.7227 85.3927 17.0053 85.3927 17.352C85.3927 17.896 85.206 18.312 84.8327 18.6C84.4594 18.888 83.9527 19.032 83.3127 19.032C82.6727 19.032 82.1527 19.0187 81.7527 18.992ZM83.4327 16.592H82.7367V18.072C82.9874 18.0987 83.2034 18.112 83.3847 18.112C84.0674 18.112 84.4087 17.8427 84.4087 17.304C84.4087 17.0693 84.3234 16.8933 84.1527 16.776C83.982 16.6533 83.7421 16.592 83.4327 16.592ZM83.3527 14.296C83.118 14.296 82.9127 14.304 82.7367 14.32V15.736H83.4007C83.6514 15.736 83.8514 15.672 84.0007 15.544C84.1554 15.416 84.2327 15.232 84.2327 14.992C84.2327 14.768 84.1554 14.5973 84.0007 14.48C83.8461 14.3573 83.63 14.296 83.3527 14.296Z" fill="white"/>
<path d="M86.2742 16.2C86.2742 15.384 86.5462 14.6987 87.0902 14.144C87.6449 13.5893 88.3435 13.312 89.1862 13.312C90.0289 13.312 90.7249 13.5787 91.2742 14.112C91.8289 14.6507 92.1062 15.3467 92.1062 16.2C92.1062 17.0373 91.8289 17.728 91.2742 18.272C90.7196 18.816 90.0235 19.088 89.1862 19.088C88.3435 19.088 87.6475 18.8213 87.0982 18.288C86.5489 17.7547 86.2742 17.0587 86.2742 16.2ZM87.3142 16.2C87.3142 16.7653 87.4929 17.2347 87.8502 17.608C88.2076 17.9813 88.6529 18.168 89.1862 18.168C89.7622 18.168 90.2182 17.9813 90.5542 17.608C90.8955 17.2347 91.0662 16.7653 91.0662 16.2C91.0662 15.6293 90.8849 15.1573 90.5222 14.784C90.1595 14.416 89.7142 14.232 89.1862 14.232C88.6475 14.232 88.1996 14.416 87.8422 14.784C87.4902 15.152 87.3142 15.624 87.3142 16.2Z" fill="white"/>
</svg>
