<svg width="16" height="16" viewBox="0 0 16 16" fill="none" xmlns="http://www.w3.org/2000/svg">
<path d="M13.5 0.125C13.8438 0.125 14.125 0.40625 14.125 0.75V1.875H15.25C15.5938 1.875 15.875 2.15625 15.875 2.5C15.875 2.84375 15.5938 3.125 15.25 3.125H14.125V4.25C14.125 4.59375 13.8438 4.875 13.5 4.875C13.1562 4.875 12.875 4.59375 12.875 4.25V3.125H11.75C11.4062 3.125 11.125 2.84375 11.125 2.5C11.125 2.15625 11.4062 1.875 11.75 1.875H12.875V0.75C12.875 0.40625 13.1562 0.125 13.5 0.125ZM8 4C8.25 4 8.53125 4.0625 8.75 4.1875L15.3125 6.96875C15.7188 7.15625 16 7.5625 16 8C16 8.46875 15.7188 8.875 15.3125 9.0625L8.75 11.8438C8.53125 11.9688 8.25 12 8 12C7.71875 12 7.46875 11.9688 7.21875 11.8438L0.65625 9.0625C0.25 8.875 0 8.46875 0 8C0 7.5625 0.25 7.15625 0.65625 6.96875L7.21875 4.1875C7.46875 4.0625 7.71875 4 8 4ZM7.8125 5.5625L2.0625 8L7.8125 10.4688C7.875 10.5 7.9375 10.5 8 10.5C8.0625 10.5 8.125 10.5 8.15625 10.4688L13.9062 8L8.15625 5.5625C8.125 5.53125 8.0625 5.5 8 5.5C7.9375 5.5 7.875 5.53125 7.8125 5.5625ZM1.65625 10.5625L3.5625 11.375L2.0625 12L7.8125 14.4688C7.875 14.5 7.9375 14.5 8 14.5C8.0625 14.5 8.125 14.5 8.15625 14.4688L13.9062 12L12.4375 11.375L14.3125 10.5625L15.3125 10.9688C15.7188 11.1562 16 11.5625 16 12C16 12.4688 15.7188 12.875 15.3125 13.0625L8.75 15.8438C8.53125 15.9688 8.25 16 8 16C7.71875 16 7.46875 15.9688 7.21875 15.8438L0.65625 13.0625C0.25 12.875 0 12.4688 0 12C0 11.5625 0.25 11.1562 0.65625 10.9688L1.65625 10.5625Z" fill="#0E6CDD"/>
</svg>
